<?xml version="1.0" encoding="utf-8"?>
<!-- Generator: Adobe Illustrator 16.0.0, SVG Export Plug-In . SVG Version: 6.00 Build 0)  -->
<!DOCTYPE svg PUBLIC "-//W3C//DTD SVG 1.1//EN" "http://www.w3.org/Graphics/SVG/1.1/DTD/svg11.dtd">
<svg version="1.1" id="Layer_1" xmlns="http://www.w3.org/2000/svg" xmlns:xlink="http://www.w3.org/1999/xlink" x="0px" y="0px"
	 width="338.97px" height="338.807px" viewBox="0 0 338.97 338.807" enable-background="new 0 0 338.97 338.807"
	 xml:space="preserve">
<g>
	<defs>
		<rect id="SVGID_1_" x="-253.674" y="-58.373" width="841.89" height="595.276"/>
	</defs>
	<defs>
		<path id="SVGID_2_" d="M0,159.08v21.145c5.194,84.426,72.118,152.154,156.203,158.583h26.226
			c87.57-6.694,156.541-79.869,156.541-169.154C338.97,75.955,263.014,0,169.316,0C79.172,0,5.461,70.31,0,159.08"/>
	</defs>
	<clipPath id="SVGID_3_">
		<use xlink:href="#SVGID_1_"  overflow="visible"/>
	</clipPath>
	<clipPath id="SVGID_4_" clip-path="url(#SVGID_3_)">
		<use xlink:href="#SVGID_2_"  overflow="visible"/>
	</clipPath>
	<path display="none" clip-path="url(#SVGID_4_)" fill="none" stroke="#000000" d="M169.485,339.403c93.738,0,170-76.262,170-170
		c0-93.738-76.262-170-170-170c-93.739,0-170,76.262-170,170C-0.515,263.141,75.747,339.403,169.485,339.403z"/>
	<path clip-path="url(#SVGID_4_)" fill="#000000" d="M254.077,173.448c-2.054,0.723-3.412,1.78-4.076,3.169
		c0.09,5.163,2.306,10.642,2.683,15.793c0.355,4.828,0.483,5.213,0.543,11.354c0.539,55.77-37.793,103.953-87.345,125.476
		c20.356-17.573,40.358-43.633,29.723-72.827c-0.439-1.205-0.538-1.768-2.186-3.969c-2.065-2.751-5.135-5.27-7.988-6.871
		c-33.365,21.583-77.021,25.44-113.797,9.55c-9.027-4.319-18.387-7.943-26.75-13.651c-11.502-8.064-21.284-16.157-30.068-26.334
		c16.03,11.084,34.354,16.859,53.985,15.59c2.776-0.181,3.567-0.278,6.522-1.148c10.981-3.224,21.501-11.048,23.707-22.792
		C48.732,165.652,42.222,88.291,76.411,34.67c-7.129,25.604-6.512,59.994,19.192,74.042c5.764,3.149,8.189,3.074,11.093,3.04
		c1.427-0.019,2.735,0.163,3.068-0.531c21.476-52.024,79.147-81.606,133.979-76.704c8.273,0.545,16.577,2.81,24.518,4.051
		c-27.538,0.479-64.499,13.517-66.013,45.22c-0.636,3.11,0.45,6.189,1.536,9.271c35.177,3.176,68.209,21.541,89.37,50.439
		c16.936,23.466,26.02,50.852,28.911,78.693C312.651,195.499,286.567,160.831,254.077,173.448 M169.652-0.5
		C75.956-0.5,0,75.455,0,169.151c0,38.839,13.051,74.629,35.006,103.225c27.564,35.903,68.479,66.41,116.124,66.41
		c5.964,0,12.427,0.02,18.522,0.02c93.696,0,169.653-75.961,169.653-169.655C339.306,75.455,263.349-0.5,169.652-0.5"/>
</g>
</svg>
